<svg id="visual" viewBox="0 0 540 960" width="540" height="960" xmlns="http://www.w3.org/2000/svg" xmlns:xlink="http://www.w3.org/1999/xlink" version="1.1"><path d="M0 215L9 210.7C18 206.3 36 197.7 54 190.7C72 183.7 90 178.3 108 181.5C126 184.7 144 196.3 162 202C180 207.7 198 207.3 216 203.5C234 199.7 252 192.3 270 194.3C288 196.3 306 207.7 324 207.5C342 207.3 360 195.7 378 189C396 182.3 414 180.7 432 187C450 193.3 468 207.7 486 209.3C504 211 522 200 531 194.5L540 189L540 0L531 0C522 0 504 0 486 0C468 0 450 0 432 0C414 0 396 0 378 0C360 0 342 0 324 0C306 0 288 0 270 0C252 0 234 0 216 0C198 0 180 0 162 0C144 0 126 0 108 0C90 0 72 0 54 0C36 0 18 0 9 0L0 0Z" fill="#0b0b0b"></path><path d="M0 200L9 200.2C18 200.3 36 200.7 54 191.2C72 181.7 90 162.3 108 156C126 149.7 144 156.3 162 156.5C180 156.7 198 150.3 216 154.7C234 159 252 174 270 179C288 184 306 179 324 172.5C342 166 360 158 378 156.3C396 154.7 414 159.3 432 165.7C450 172 468 180 486 177.8C504 175.7 522 163.3 531 157.2L540 151L540 0L531 0C522 0 504 0 486 0C468 0 450 0 432 0C414 0 396 0 378 0C360 0 342 0 324 0C306 0 288 0 270 0C252 0 234 0 216 0C198 0 180 0 162 0C144 0 126 0 108 0C90 0 72 0 54 0C36 0 18 0 9 0L0 0Z" fill="#111213"></path><path d="M0 127L9 130.3C18 133.7 36 140.3 54 147C72 153.7 90 160.3 108 155C126 149.7 144 132.3 162 126.7C180 121 198 127 216 133C234 139 252 145 270 144.7C288 144.3 306 137.7 324 140.7C342 143.7 360 156.3 378 157C396 157.7 414 146.3 432 142.8C450 139.3 468 143.7 486 140.5C504 137.3 522 126.7 531 121.3L540 116L540 0L531 0C522 0 504 0 486 0C468 0 450 0 432 0C414 0 396 0 378 0C360 0 342 0 324 0C306 0 288 0 270 0C252 0 234 0 216 0C198 0 180 0 162 0C144 0 126 0 108 0C90 0 72 0 54 0C36 0 18 0 9 0L0 0Z" fill="#161719"></path><path d="M0 96L9 101.7C18 107.3 36 118.7 54 119.5C72 120.3 90 110.7 108 111.7C126 112.7 144 124.3 162 127.2C180 130 198 124 216 119C234 114 252 110 270 106.7C288 103.3 306 100.7 324 104.5C342 108.3 360 118.7 378 122.3C396 126 414 123 432 121.5C450 120 468 120 486 121.8C504 123.7 522 127.3 531 129.2L540 131L540 0L531 0C522 0 504 0 486 0C468 0 450 0 432 0C414 0 396 0 378 0C360 0 342 0 324 0C306 0 288 0 270 0C252 0 234 0 216 0C198 0 180 0 162 0C144 0 126 0 108 0C90 0 72 0 54 0C36 0 18 0 9 0L0 0Z" fill="#1a1c1e"></path><path d="M0 87L9 85.3C18 83.7 36 80.3 54 77.7C72 75 90 73 108 77.3C126 81.7 144 92.3 162 94C180 95.7 198 88.3 216 82.5C234 76.7 252 72.3 270 76.3C288 80.3 306 92.7 324 96C342 99.3 360 93.7 378 94.5C396 95.3 414 102.7 432 100.2C450 97.7 468 85.3 486 80.8C504 76.3 522 79.7 531 81.3L540 83L540 0L531 0C522 0 504 0 486 0C468 0 450 0 432 0C414 0 396 0 378 0C360 0 342 0 324 0C306 0 288 0 270 0C252 0 234 0 216 0C198 0 180 0 162 0C144 0 126 0 108 0C90 0 72 0 54 0C36 0 18 0 9 0L0 0Z" fill="#1e2124"></path><path d="M0 64L9 60.7C18 57.3 36 50.7 54 48.8C72 47 90 50 108 53.3C126 56.7 144 60.3 162 59C180 57.7 198 51.3 216 52.5C234 53.7 252 62.3 270 64.3C288 66.3 306 61.7 324 60.3C342 59 360 61 378 61.3C396 61.7 414 60.3 432 58.3C450 56.3 468 53.7 486 56.2C504 58.7 522 66.3 531 70.2L540 74L540 0L531 0C522 0 504 0 486 0C468 0 450 0 432 0C414 0 396 0 378 0C360 0 342 0 324 0C306 0 288 0 270 0C252 0 234 0 216 0C198 0 180 0 162 0C144 0 126 0 108 0C90 0 72 0 54 0C36 0 18 0 9 0L0 0Z" fill="#232629"></path><path d="M0 30L9 30.5C18 31 36 32 54 32.5C72 33 90 33 108 34.2C126 35.3 144 37.7 162 39.5C180 41.3 198 42.7 216 42.8C234 43 252 42 270 39.3C288 36.7 306 32.3 324 31.7C342 31 360 34 378 33.7C396 33.3 414 29.7 432 28C450 26.3 468 26.7 486 30.5C504 34.3 522 41.7 531 45.3L540 49L540 0L531 0C522 0 504 0 486 0C468 0 450 0 432 0C414 0 396 0 378 0C360 0 342 0 324 0C306 0 288 0 270 0C252 0 234 0 216 0C198 0 180 0 162 0C144 0 126 0 108 0C90 0 72 0 54 0C36 0 18 0 9 0L0 0Z" fill="#272b2f"></path></svg>