<svg id="visual" viewBox="0 0 540 960" width="540" height="960" xmlns="http://www.w3.org/2000/svg" xmlns:xlink="http://www.w3.org/1999/xlink" version="1.1"><rect x="0" y="0" width="540" height="960" fill="#070014"></rect><path d="M0 153L15 161.3C30 169.7 60 186.3 90 192.2C120 198 150 193 180 198.2C210 203.3 240 218.7 270 219C300 219.3 330 204.7 360 194.8C390 185 420 180 450 174.7C480 169.3 510 163.7 525 160.8L540 158L540 0L525 0C510 0 480 0 450 0C420 0 390 0 360 0C330 0 300 0 270 0C240 0 210 0 180 0C150 0 120 0 90 0C60 0 30 0 15 0L0 0Z" fill="#040041"></path><path d="M0 161L15 158.5C30 156 60 151 90 148.2C120 145.3 150 144.7 180 150.8C210 157 240 170 270 180.7C300 191.3 330 199.7 360 191.5C390 183.3 420 158.7 450 157.2C480 155.7 510 177.3 525 188.2L540 199L540 0L525 0C510 0 480 0 450 0C420 0 390 0 360 0C330 0 300 0 270 0C240 0 210 0 180 0C150 0 120 0 90 0C60 0 30 0 15 0L0 0Z" fill="#001651"></path><path d="M0 109L15 112.5C30 116 60 123 90 128.7C120 134.3 150 138.7 180 145.8C210 153 240 163 270 157.3C300 151.7 330 130.3 360 129.7C390 129 420 149 450 149.2C480 149.3 510 129.7 525 119.8L540 110L540 0L525 0C510 0 480 0 450 0C420 0 390 0 360 0C330 0 300 0 270 0C240 0 210 0 180 0C150 0 120 0 90 0C60 0 30 0 15 0L0 0Z" fill="#002761"></path><path d="M0 121L15 118.2C30 115.3 60 109.7 90 106.5C120 103.3 150 102.7 180 105.5C210 108.3 240 114.7 270 114.5C300 114.3 330 107.7 360 106.3C390 105 420 109 450 110C480 111 510 109 525 108L540 107L540 0L525 0C510 0 480 0 450 0C420 0 390 0 360 0C330 0 300 0 270 0C240 0 210 0 180 0C150 0 120 0 90 0C60 0 30 0 15 0L0 0Z" fill="#003870"></path><path d="M0 66L15 72.3C30 78.7 60 91.3 90 92.2C120 93 150 82 180 81.3C210 80.7 240 90.3 270 94.3C300 98.3 330 96.7 360 98.5C390 100.3 420 105.7 450 108.7C480 111.7 510 112.3 525 112.7L540 113L540 0L525 0C510 0 480 0 450 0C420 0 390 0 360 0C330 0 300 0 270 0C240 0 210 0 180 0C150 0 120 0 90 0C60 0 30 0 15 0L0 0Z" fill="#01497e"></path><path d="M0 75L15 76.3C30 77.7 60 80.3 90 80C120 79.7 150 76.3 180 71.7C210 67 240 61 270 55.5C300 50 330 45 360 45.2C390 45.3 420 50.7 450 51.8C480 53 510 50 525 48.5L540 47L540 0L525 0C510 0 480 0 450 0C420 0 390 0 360 0C330 0 300 0 270 0C240 0 210 0 180 0C150 0 120 0 90 0C60 0 30 0 15 0L0 0Z" fill="#105b8a"></path><path d="M0 28L15 30.5C30 33 60 38 90 42C120 46 150 49 180 49.7C210 50.3 240 48.7 270 43.3C300 38 330 29 360 27C390 25 420 30 450 32C480 34 510 33 525 32.5L540 32L540 0L525 0C510 0 480 0 450 0C420 0 390 0 360 0C330 0 300 0 270 0C240 0 210 0 180 0C150 0 120 0 90 0C60 0 30 0 15 0L0 0Z" fill="#236c95"></path></svg>