<svg id="visual" viewBox="0 0 540 960" width="540" height="960" xmlns="http://www.w3.org/2000/svg" xmlns:xlink="http://www.w3.org/1999/xlink" version="1.1"><path d="M0 222L7.5 219.8C15 217.7 30 213.3 45 210.2C60 207 75 205 90 205C105 205 120 207 135 211.2C150 215.3 165 221.7 180 219.2C195 216.7 210 205.3 225 203.2C240 201 255 208 270 210C285 212 300 209 315 205C330 201 345 196 360 198.5C375 201 390 211 405 214.2C420 217.3 435 213.7 450 213.8C465 214 480 218 495 216.8C510 215.7 525 209.3 532.5 206.2L540 203L540 0L532.5 0C525 0 510 0 495 0C480 0 465 0 450 0C435 0 420 0 405 0C390 0 375 0 360 0C345 0 330 0 315 0C300 0 285 0 270 0C255 0 240 0 225 0C210 0 195 0 180 0C165 0 150 0 135 0C120 0 105 0 90 0C75 0 60 0 45 0C30 0 15 0 7.5 0L0 0Z" fill="#2f0000"></path><path d="M0 163L7.5 164.5C15 166 30 169 45 167.2C60 165.3 75 158.7 90 158.7C105 158.7 120 165.3 135 169.8C150 174.3 165 176.7 180 177.5C195 178.3 210 177.7 225 178.3C240 179 255 181 270 176.5C285 172 300 161 315 161.7C330 162.3 345 174.7 360 176.8C375 179 390 171 405 169.8C420 168.7 435 174.3 450 173.2C465 172 480 164 495 161C510 158 525 160 532.5 161L540 162L540 0L532.5 0C525 0 510 0 495 0C480 0 465 0 450 0C435 0 420 0 405 0C390 0 375 0 360 0C345 0 330 0 315 0C300 0 285 0 270 0C255 0 240 0 225 0C210 0 195 0 180 0C165 0 150 0 135 0C120 0 105 0 90 0C75 0 60 0 45 0C30 0 15 0 7.5 0L0 0Z" fill="#3b0606"></path><path d="M0 150L7.5 154.8C15 159.7 30 169.3 45 172.3C60 175.3 75 171.7 90 169.7C105 167.7 120 167.3 135 161C150 154.7 165 142.3 180 142.5C195 142.7 210 155.3 225 159.7C240 164 255 160 270 154.3C285 148.7 300 141.3 315 137.2C330 133 345 132 360 139.3C375 146.7 390 162.3 405 165.2C420 168 435 158 450 152.2C465 146.3 480 144.7 495 149.8C510 155 525 167 532.5 173L540 179L540 0L532.5 0C525 0 510 0 495 0C480 0 465 0 450 0C435 0 420 0 405 0C390 0 375 0 360 0C345 0 330 0 315 0C300 0 285 0 270 0C255 0 240 0 225 0C210 0 195 0 180 0C165 0 150 0 135 0C120 0 105 0 90 0C75 0 60 0 45 0C30 0 15 0 7.5 0L0 0Z" fill="#470e0b"></path><path d="M0 136L7.5 137.8C15 139.7 30 143.3 45 140.3C60 137.3 75 127.7 90 130C105 132.3 120 146.7 135 150.3C150 154 165 147 180 139.5C195 132 210 124 225 125.7C240 127.3 255 138.7 270 141.8C285 145 300 140 315 136.2C330 132.3 345 129.7 360 130.7C375 131.7 390 136.3 405 136.7C420 137 435 133 450 134.5C465 136 480 143 495 141.5C510 140 525 130 532.5 125L540 120L540 0L532.5 0C525 0 510 0 495 0C480 0 465 0 450 0C435 0 420 0 405 0C390 0 375 0 360 0C345 0 330 0 315 0C300 0 285 0 270 0C255 0 240 0 225 0C210 0 195 0 180 0C165 0 150 0 135 0C120 0 105 0 90 0C75 0 60 0 45 0C30 0 15 0 7.5 0L0 0Z" fill="#54160d"></path><path d="M0 95L7.5 94.7C15 94.3 30 93.7 45 96.2C60 98.7 75 104.3 90 109.7C105 115 120 120 135 123.2C150 126.3 165 127.7 180 123.8C195 120 210 111 225 111.5C240 112 255 122 270 123.7C285 125.3 300 118.7 315 113.7C330 108.7 345 105.3 360 103C375 100.7 390 99.3 405 103.5C420 107.7 435 117.3 450 122.2C465 127 480 127 495 124.3C510 121.7 525 116.3 532.5 113.7L540 111L540 0L532.5 0C525 0 510 0 495 0C480 0 465 0 450 0C435 0 420 0 405 0C390 0 375 0 360 0C345 0 330 0 315 0C300 0 285 0 270 0C255 0 240 0 225 0C210 0 195 0 180 0C165 0 150 0 135 0C120 0 105 0 90 0C75 0 60 0 45 0C30 0 15 0 7.5 0L0 0Z" fill="#601f0e"></path><path d="M0 77L7.5 81C15 85 30 93 45 97.7C60 102.3 75 103.7 90 101.2C105 98.7 120 92.3 135 88.8C150 85.3 165 84.7 180 85.8C195 87 210 90 225 90.5C240 91 255 89 270 90.3C285 91.7 300 96.3 315 100.2C330 104 345 107 360 106.8C375 106.7 390 103.3 405 103.2C420 103 435 106 450 102.8C465 99.7 480 90.3 495 89.3C510 88.3 525 95.7 532.5 99.3L540 103L540 0L532.5 0C525 0 510 0 495 0C480 0 465 0 450 0C435 0 420 0 405 0C390 0 375 0 360 0C345 0 330 0 315 0C300 0 285 0 270 0C255 0 240 0 225 0C210 0 195 0 180 0C165 0 150 0 135 0C120 0 105 0 90 0C75 0 60 0 45 0C30 0 15 0 7.5 0L0 0Z" fill="#6c290d"></path><path d="M0 59L7.5 62C15 65 30 71 45 72.2C60 73.3 75 69.7 90 68C105 66.3 120 66.7 135 65C150 63.3 165 59.7 180 58.2C195 56.7 210 57.3 225 59.8C240 62.3 255 66.7 270 71.2C285 75.7 300 80.3 315 81.8C330 83.3 345 81.7 360 76.7C375 71.7 390 63.3 405 59.2C420 55 435 55 450 56.2C465 57.3 480 59.7 495 64.3C510 69 525 76 532.5 79.5L540 83L540 0L532.5 0C525 0 510 0 495 0C480 0 465 0 450 0C435 0 420 0 405 0C390 0 375 0 360 0C345 0 330 0 315 0C300 0 285 0 270 0C255 0 240 0 225 0C210 0 195 0 180 0C165 0 150 0 135 0C120 0 105 0 90 0C75 0 60 0 45 0C30 0 15 0 7.5 0L0 0Z" fill="#77340a"></path><path d="M0 60L7.5 59.8C15 59.7 30 59.3 45 56.5C60 53.7 75 48.3 90 46.3C105 44.3 120 45.7 135 47.7C150 49.7 165 52.3 180 53.3C195 54.3 210 53.7 225 53.3C240 53 255 53 270 52.3C285 51.7 300 50.3 315 47.8C330 45.3 345 41.7 360 44C375 46.3 390 54.7 405 56.3C420 58 435 53 450 51.3C465 49.7 480 51.3 495 51.8C510 52.3 525 51.7 532.5 51.3L540 51L540 0L532.5 0C525 0 510 0 495 0C480 0 465 0 450 0C435 0 420 0 405 0C390 0 375 0 360 0C345 0 330 0 315 0C300 0 285 0 270 0C255 0 240 0 225 0C210 0 195 0 180 0C165 0 150 0 135 0C120 0 105 0 90 0C75 0 60 0 45 0C30 0 15 0 7.5 0L0 0Z" fill="#813f06"></path><path d="M0 22L7.5 21.2C15 20.3 30 18.7 45 20.5C60 22.3 75 27.7 90 30.7C105 33.7 120 34.3 135 32.5C150 30.7 165 26.3 180 25.8C195 25.3 210 28.7 225 31C240 33.3 255 34.7 270 35.7C285 36.7 300 37.3 315 37.3C330 37.3 345 36.7 360 36.3C375 36 390 36 405 35C420 34 435 32 450 32C465 32 480 34 495 33.7C510 33.3 525 30.7 532.5 29.3L540 28L540 0L532.5 0C525 0 510 0 495 0C480 0 465 0 450 0C435 0 420 0 405 0C390 0 375 0 360 0C345 0 330 0 315 0C300 0 285 0 270 0C255 0 240 0 225 0C210 0 195 0 180 0C165 0 150 0 135 0C120 0 105 0 90 0C75 0 60 0 45 0C30 0 15 0 7.5 0L0 0Z" fill="#8a4b00"></path></svg>