<svg id="visual" viewBox="0 0 540 960" width="540" height="960" xmlns="http://www.w3.org/2000/svg" xmlns:xlink="http://www.w3.org/1999/xlink" version="1.1"><path d="M0 214L7.5 216.3C15 218.7 30 223.3 45 223.3C60 223.3 75 218.7 90 216.2C105 213.7 120 213.3 135 211.5C150 209.7 165 206.3 180 200.2C195 194 210 185 225 185.2C240 185.3 255 194.7 270 202C285 209.3 300 214.7 315 210.2C330 205.7 345 191.3 360 182.7C375 174 390 171 405 177.5C420 184 435 200 450 210.8C465 221.7 480 227.3 495 230.3C510 233.3 525 233.7 532.5 233.8L540 234L540 0L532.5 0C525 0 510 0 495 0C480 0 465 0 450 0C435 0 420 0 405 0C390 0 375 0 360 0C345 0 330 0 315 0C300 0 285 0 270 0C255 0 240 0 225 0C210 0 195 0 180 0C165 0 150 0 135 0C120 0 105 0 90 0C75 0 60 0 45 0C30 0 15 0 7.5 0L0 0Z" fill="#00330e"></path><path d="M0 174L7.5 171C15 168 30 162 45 158.5C60 155 75 154 90 157.8C105 161.7 120 170.3 135 178.7C150 187 165 195 180 198C195 201 210 199 225 198.7C240 198.3 255 199.7 270 193.3C285 187 300 173 315 169.2C330 165.3 345 171.7 360 173.2C375 174.7 390 171.3 405 172.5C420 173.7 435 179.3 450 178.3C465 177.3 480 169.7 495 167.8C510 166 525 170 532.5 172L540 174L540 0L532.5 0C525 0 510 0 495 0C480 0 465 0 450 0C435 0 420 0 405 0C390 0 375 0 360 0C345 0 330 0 315 0C300 0 285 0 270 0C255 0 240 0 225 0C210 0 195 0 180 0C165 0 150 0 135 0C120 0 105 0 90 0C75 0 60 0 45 0C30 0 15 0 7.5 0L0 0Z" fill="#013d19"></path><path d="M0 138L7.5 144.8C15 151.7 30 165.3 45 171.3C60 177.3 75 175.7 90 176.3C105 177 120 180 135 178.7C150 177.3 165 171.7 180 165.7C195 159.7 210 153.3 225 150C240 146.7 255 146.3 270 151C285 155.7 300 165.3 315 168.3C330 171.3 345 167.7 360 161.8C375 156 390 148 405 144.8C420 141.7 435 143.3 450 146.2C465 149 480 153 495 152.8C510 152.7 525 148.3 532.5 146.2L540 144L540 0L532.5 0C525 0 510 0 495 0C480 0 465 0 450 0C435 0 420 0 405 0C390 0 375 0 360 0C345 0 330 0 315 0C300 0 285 0 270 0C255 0 240 0 225 0C210 0 195 0 180 0C165 0 150 0 135 0C120 0 105 0 90 0C75 0 60 0 45 0C30 0 15 0 7.5 0L0 0Z" fill="#034723"></path><path d="M0 127L7.5 129.8C15 132.7 30 138.3 45 138.8C60 139.3 75 134.7 90 134.7C105 134.7 120 139.3 135 142.7C150 146 165 148 180 146C195 144 210 138 225 136.7C240 135.3 255 138.7 270 138C285 137.3 300 132.7 315 131.8C330 131 345 134 360 132.3C375 130.7 390 124.3 405 124.7C420 125 435 132 450 135.3C465 138.7 480 138.3 495 134.7C510 131 525 124 532.5 120.5L540 117L540 0L532.5 0C525 0 510 0 495 0C480 0 465 0 450 0C435 0 420 0 405 0C390 0 375 0 360 0C345 0 330 0 315 0C300 0 285 0 270 0C255 0 240 0 225 0C210 0 195 0 180 0C165 0 150 0 135 0C120 0 105 0 90 0C75 0 60 0 45 0C30 0 15 0 7.5 0L0 0Z" fill="#04522e"></path><path d="M0 124L7.5 119.7C15 115.3 30 106.7 45 103C60 99.3 75 100.7 90 99.8C105 99 120 96 135 100.2C150 104.3 165 115.7 180 121.5C195 127.3 210 127.7 225 121.8C240 116 255 104 270 99.5C285 95 300 98 315 105C330 112 345 123 360 123.2C375 123.3 390 112.7 405 110C420 107.3 435 112.7 450 111.8C465 111 480 104 495 106.3C510 108.7 525 120.3 532.5 126.2L540 132L540 0L532.5 0C525 0 510 0 495 0C480 0 465 0 450 0C435 0 420 0 405 0C390 0 375 0 360 0C345 0 330 0 315 0C300 0 285 0 270 0C255 0 240 0 225 0C210 0 195 0 180 0C165 0 150 0 135 0C120 0 105 0 90 0C75 0 60 0 45 0C30 0 15 0 7.5 0L0 0Z" fill="#055d3a"></path><path d="M0 92L7.5 94.7C15 97.3 30 102.7 45 104C60 105.3 75 102.7 90 101C105 99.3 120 98.7 135 95.3C150 92 165 86 180 85C195 84 210 88 225 89.2C240 90.3 255 88.7 270 91.7C285 94.7 300 102.3 315 104.5C330 106.7 345 103.3 360 99.5C375 95.7 390 91.3 405 86.8C420 82.3 435 77.7 450 80.2C465 82.7 480 92.3 495 96.2C510 100 525 98 532.5 97L540 96L540 0L532.5 0C525 0 510 0 495 0C480 0 465 0 450 0C435 0 420 0 405 0C390 0 375 0 360 0C345 0 330 0 315 0C300 0 285 0 270 0C255 0 240 0 225 0C210 0 195 0 180 0C165 0 150 0 135 0C120 0 105 0 90 0C75 0 60 0 45 0C30 0 15 0 7.5 0L0 0Z" fill="#056846"></path><path d="M0 56L7.5 59C15 62 30 68 45 72.8C60 77.7 75 81.3 90 79.3C105 77.3 120 69.7 135 68.8C150 68 165 74 180 78C195 82 210 84 225 85.3C240 86.7 255 87.3 270 87.5C285 87.7 300 87.3 315 81.8C330 76.3 345 65.7 360 61.2C375 56.7 390 58.3 405 61.3C420 64.3 435 68.7 450 67.8C465 67 480 61 495 62.8C510 64.7 525 74.3 532.5 79.2L540 84L540 0L532.5 0C525 0 510 0 495 0C480 0 465 0 450 0C435 0 420 0 405 0C390 0 375 0 360 0C345 0 330 0 315 0C300 0 285 0 270 0C255 0 240 0 225 0C210 0 195 0 180 0C165 0 150 0 135 0C120 0 105 0 90 0C75 0 60 0 45 0C30 0 15 0 7.5 0L0 0Z" fill="#047352"></path><path d="M0 63L7.5 61C15 59 30 55 45 51.7C60 48.3 75 45.7 90 46.2C105 46.7 120 50.3 135 50.3C150 50.3 165 46.7 180 47.7C195 48.7 210 54.3 225 53.2C240 52 255 44 270 44C285 44 300 52 315 52.7C330 53.3 345 46.7 360 45C375 43.3 390 46.7 405 49C420 51.3 435 52.7 450 53.3C465 54 480 54 495 52.7C510 51.3 525 48.7 532.5 47.3L540 46L540 0L532.5 0C525 0 510 0 495 0C480 0 465 0 450 0C435 0 420 0 405 0C390 0 375 0 360 0C345 0 330 0 315 0C300 0 285 0 270 0C255 0 240 0 225 0C210 0 195 0 180 0C165 0 150 0 135 0C120 0 105 0 90 0C75 0 60 0 45 0C30 0 15 0 7.5 0L0 0Z" fill="#037e5f"></path><path d="M0 17L7.5 17.5C15 18 30 19 45 20C60 21 75 22 90 22.5C105 23 120 23 135 25.5C150 28 165 33 180 34.2C195 35.3 210 32.7 225 32.2C240 31.7 255 33.3 270 32.8C285 32.3 300 29.7 315 30.3C330 31 345 35 360 36.8C375 38.7 390 38.3 405 36.7C420 35 435 32 450 28.8C465 25.7 480 22.3 495 21.8C510 21.3 525 23.7 532.5 24.8L540 26L540 0L532.5 0C525 0 510 0 495 0C480 0 465 0 450 0C435 0 420 0 405 0C390 0 375 0 360 0C345 0 330 0 315 0C300 0 285 0 270 0C255 0 240 0 225 0C210 0 195 0 180 0C165 0 150 0 135 0C120 0 105 0 90 0C75 0 60 0 45 0C30 0 15 0 7.5 0L0 0Z" fill="#008a6d"></path></svg>