<svg id="visual" viewBox="0 0 540 960" width="540" height="960" xmlns="http://www.w3.org/2000/svg" xmlns:xlink="http://www.w3.org/1999/xlink" version="1.1"><path d="M0 200L7.5 194.8C15 189.7 30 179.3 45 175.7C60 172 75 175 90 177.3C105 179.7 120 181.3 135 190.3C150 199.3 165 215.7 180 219.8C195 224 210 216 225 210.7C240 205.3 255 202.7 270 199.5C285 196.3 300 192.7 315 189.2C330 185.7 345 182.3 360 187.2C375 192 390 205 405 205.5C420 206 435 194 450 192.5C465 191 480 200 495 198.3C510 196.7 525 184.3 532.5 178.2L540 172L540 0L532.5 0C525 0 510 0 495 0C480 0 465 0 450 0C435 0 420 0 405 0C390 0 375 0 360 0C345 0 330 0 315 0C300 0 285 0 270 0C255 0 240 0 225 0C210 0 195 0 180 0C165 0 150 0 135 0C120 0 105 0 90 0C75 0 60 0 45 0C30 0 15 0 7.5 0L0 0Z" fill="#080033"></path><path d="M0 186L7.5 179.7C15 173.3 30 160.7 45 161.2C60 161.7 75 175.3 90 183.3C105 191.3 120 193.7 135 187.2C150 180.7 165 165.3 180 166C195 166.7 210 183.3 225 183.7C240 184 255 168 270 165.5C285 163 300 174 315 180C330 186 345 187 360 191.2C375 195.3 390 202.7 405 204.2C420 205.7 435 201.3 450 193.3C465 185.3 480 173.7 495 171.8C510 170 525 178 532.5 182L540 186L540 0L532.5 0C525 0 510 0 495 0C480 0 465 0 450 0C435 0 420 0 405 0C390 0 375 0 360 0C345 0 330 0 315 0C300 0 285 0 270 0C255 0 240 0 225 0C210 0 195 0 180 0C165 0 150 0 135 0C120 0 105 0 90 0C75 0 60 0 45 0C30 0 15 0 7.5 0L0 0Z" fill="#021441"></path><path d="M0 132L7.5 135.2C15 138.3 30 144.7 45 151.8C60 159 75 167 90 165C105 163 120 151 135 145.3C150 139.7 165 140.3 180 139.8C195 139.3 210 137.7 225 143C240 148.3 255 160.7 270 161.8C285 163 300 153 315 152.8C330 152.7 345 162.3 360 160.3C375 158.3 390 144.7 405 138.5C420 132.3 435 133.7 450 134.2C465 134.7 480 134.3 495 134.5C510 134.7 525 135.3 532.5 135.7L540 136L540 0L532.5 0C525 0 510 0 495 0C480 0 465 0 450 0C435 0 420 0 405 0C390 0 375 0 360 0C345 0 330 0 315 0C300 0 285 0 270 0C255 0 240 0 225 0C210 0 195 0 180 0C165 0 150 0 135 0C120 0 105 0 90 0C75 0 60 0 45 0C30 0 15 0 7.5 0L0 0Z" fill="#01214f"></path><path d="M0 121L7.5 123.8C15 126.7 30 132.3 45 138.7C60 145 75 152 90 147.5C105 143 120 127 135 124.3C150 121.7 165 132.3 180 135.2C195 138 210 133 225 134C240 135 255 142 270 140.2C285 138.3 300 127.7 315 129.7C330 131.7 345 146.3 360 145.8C375 145.3 390 129.7 405 127.5C420 125.3 435 136.7 450 137.8C465 139 480 130 495 128.3C510 126.7 525 132.3 532.5 135.2L540 138L540 0L532.5 0C525 0 510 0 495 0C480 0 465 0 450 0C435 0 420 0 405 0C390 0 375 0 360 0C345 0 330 0 315 0C300 0 285 0 270 0C255 0 240 0 225 0C210 0 195 0 180 0C165 0 150 0 135 0C120 0 105 0 90 0C75 0 60 0 45 0C30 0 15 0 7.5 0L0 0Z" fill="#002f5d"></path><path d="M0 101L7.5 103.3C15 105.7 30 110.3 45 113C60 115.7 75 116.3 90 118.5C105 120.7 120 124.3 135 121.8C150 119.3 165 110.7 180 107.7C195 104.7 210 107.3 225 108C240 108.7 255 107.3 270 108.2C285 109 300 112 315 114.2C330 116.3 345 117.7 360 118C375 118.3 390 117.7 405 117.5C420 117.3 435 117.7 450 115.8C465 114 480 110 495 112.2C510 114.3 525 122.7 532.5 126.8L540 131L540 0L532.5 0C525 0 510 0 495 0C480 0 465 0 450 0C435 0 420 0 405 0C390 0 375 0 360 0C345 0 330 0 315 0C300 0 285 0 270 0C255 0 240 0 225 0C210 0 195 0 180 0C165 0 150 0 135 0C120 0 105 0 90 0C75 0 60 0 45 0C30 0 15 0 7.5 0L0 0Z" fill="#003d6b"></path><path d="M0 73L7.5 76C15 79 30 85 45 87.7C60 90.3 75 89.7 90 90C105 90.3 120 91.7 135 89.3C150 87 165 81 180 82.8C195 84.7 210 94.3 225 98.3C240 102.3 255 100.7 270 96.7C285 92.7 300 86.3 315 87.2C330 88 345 96 360 96.2C375 96.3 390 88.7 405 90.2C420 91.7 435 102.3 450 107C465 111.7 480 110.3 495 105.2C510 100 525 91 532.5 86.5L540 82L540 0L532.5 0C525 0 510 0 495 0C480 0 465 0 450 0C435 0 420 0 405 0C390 0 375 0 360 0C345 0 330 0 315 0C300 0 285 0 270 0C255 0 240 0 225 0C210 0 195 0 180 0C165 0 150 0 135 0C120 0 105 0 90 0C75 0 60 0 45 0C30 0 15 0 7.5 0L0 0Z" fill="#004b78"></path><path d="M0 68L7.5 71.2C15 74.3 30 80.7 45 80C60 79.3 75 71.7 90 70C105 68.3 120 72.7 135 75.2C150 77.7 165 78.3 180 78C195 77.7 210 76.3 225 77.3C240 78.3 255 81.7 270 83.5C285 85.3 300 85.7 315 83C330 80.3 345 74.7 360 70.7C375 66.7 390 64.3 405 63.7C420 63 435 64 450 64.2C465 64.3 480 63.7 495 62.2C510 60.7 525 58.3 532.5 57.2L540 56L540 0L532.5 0C525 0 510 0 495 0C480 0 465 0 450 0C435 0 420 0 405 0C390 0 375 0 360 0C345 0 330 0 315 0C300 0 285 0 270 0C255 0 240 0 225 0C210 0 195 0 180 0C165 0 150 0 135 0C120 0 105 0 90 0C75 0 60 0 45 0C30 0 15 0 7.5 0L0 0Z" fill="#005a84"></path><path d="M0 62L7.5 59.7C15 57.3 30 52.7 45 51.8C60 51 75 54 90 55.5C105 57 120 57 135 54.8C150 52.7 165 48.3 180 45.2C195 42 210 40 225 42C240 44 255 50 270 50.3C285 50.7 300 45.3 315 46.2C330 47 345 54 360 56.5C375 59 390 57 405 53.3C420 49.7 435 44.3 450 42.5C465 40.7 480 42.3 495 45.8C510 49.3 525 54.7 532.5 57.3L540 60L540 0L532.5 0C525 0 510 0 495 0C480 0 465 0 450 0C435 0 420 0 405 0C390 0 375 0 360 0C345 0 330 0 315 0C300 0 285 0 270 0C255 0 240 0 225 0C210 0 195 0 180 0C165 0 150 0 135 0C120 0 105 0 90 0C75 0 60 0 45 0C30 0 15 0 7.5 0L0 0Z" fill="#00698e"></path><path d="M0 28L7.5 27.2C15 26.3 30 24.7 45 25C60 25.3 75 27.7 90 27.7C105 27.7 120 25.3 135 26.2C150 27 165 31 180 30.3C195 29.7 210 24.3 225 22C240 19.7 255 20.3 270 20.7C285 21 300 21 315 20.3C330 19.7 345 18.3 360 18C375 17.7 390 18.3 405 19.3C420 20.3 435 21.7 450 25C465 28.3 480 33.7 495 32.7C510 31.7 525 24.3 532.5 20.7L540 17L540 0L532.5 0C525 0 510 0 495 0C480 0 465 0 450 0C435 0 420 0 405 0C390 0 375 0 360 0C345 0 330 0 315 0C300 0 285 0 270 0C255 0 240 0 225 0C210 0 195 0 180 0C165 0 150 0 135 0C120 0 105 0 90 0C75 0 60 0 45 0C30 0 15 0 7.5 0L0 0Z" fill="#007898"></path></svg>