<svg id="visual" viewBox="0 0 540 960" width="540" height="960" xmlns="http://www.w3.org/2000/svg" xmlns:xlink="http://www.w3.org/1999/xlink" version="1.1"><path d="M0 221L7.5 217.7C15 214.3 30 207.7 45 199.2C60 190.7 75 180.3 90 180.3C105 180.3 120 190.7 135 198.5C150 206.3 165 211.7 180 207.2C195 202.7 210 188.3 225 186.3C240 184.3 255 194.7 270 196.5C285 198.3 300 191.7 315 190.5C330 189.3 345 193.7 360 201.2C375 208.7 390 219.3 405 216.5C420 213.7 435 197.3 450 196.2C465 195 480 209 495 207.5C510 206 525 189 532.5 180.5L540 172L540 0L532.5 0C525 0 510 0 495 0C480 0 465 0 450 0C435 0 420 0 405 0C390 0 375 0 360 0C345 0 330 0 315 0C300 0 285 0 270 0C255 0 240 0 225 0C210 0 195 0 180 0C165 0 150 0 135 0C120 0 105 0 90 0C75 0 60 0 45 0C30 0 15 0 7.5 0L0 0Z" fill="#20002e"></path><path d="M0 194L7.5 188.7C15 183.3 30 172.7 45 169.7C60 166.7 75 171.3 90 179.3C105 187.3 120 198.7 135 195.7C150 192.7 165 175.3 180 174.8C195 174.3 210 190.7 225 193.2C240 195.7 255 184.3 270 177C285 169.7 300 166.3 315 165C330 163.7 345 164.3 360 162.3C375 160.3 390 155.7 405 155C420 154.3 435 157.7 450 160.3C465 163 480 165 495 171.7C510 178.3 525 189.7 532.5 195.3L540 201L540 0L532.5 0C525 0 510 0 495 0C480 0 465 0 450 0C435 0 420 0 405 0C390 0 375 0 360 0C345 0 330 0 315 0C300 0 285 0 270 0C255 0 240 0 225 0C210 0 195 0 180 0C165 0 150 0 135 0C120 0 105 0 90 0C75 0 60 0 45 0C30 0 15 0 7.5 0L0 0Z" fill="#2a0539"></path><path d="M0 185L7.5 183.3C15 181.7 30 178.3 45 176.3C60 174.3 75 173.7 90 171.2C105 168.7 120 164.3 135 166.2C150 168 165 176 180 177.3C195 178.7 210 173.3 225 166.5C240 159.7 255 151.3 270 145.7C285 140 300 137 315 142.2C330 147.3 345 160.7 360 165.2C375 169.7 390 165.3 405 159.5C420 153.7 435 146.3 450 148.8C465 151.3 480 163.7 495 163.2C510 162.7 525 149.3 532.5 142.7L540 136L540 0L532.5 0C525 0 510 0 495 0C480 0 465 0 450 0C435 0 420 0 405 0C390 0 375 0 360 0C345 0 330 0 315 0C300 0 285 0 270 0C255 0 240 0 225 0C210 0 195 0 180 0C165 0 150 0 135 0C120 0 105 0 90 0C75 0 60 0 45 0C30 0 15 0 7.5 0L0 0Z" fill="#360644"></path><path d="M0 115L7.5 121.7C15 128.3 30 141.7 45 141.8C60 142 75 129 90 128.3C105 127.7 120 139.3 135 144.5C150 149.7 165 148.3 180 144.7C195 141 210 135 225 131.8C240 128.7 255 128.3 270 129.5C285 130.7 300 133.3 315 134.8C330 136.3 345 136.7 360 139.8C375 143 390 149 405 151.8C420 154.7 435 154.3 450 151.5C465 148.7 480 143.3 495 136.5C510 129.7 525 121.3 532.5 117.2L540 113L540 0L532.5 0C525 0 510 0 495 0C480 0 465 0 450 0C435 0 420 0 405 0C390 0 375 0 360 0C345 0 330 0 315 0C300 0 285 0 270 0C255 0 240 0 225 0C210 0 195 0 180 0C165 0 150 0 135 0C120 0 105 0 90 0C75 0 60 0 45 0C30 0 15 0 7.5 0L0 0Z" fill="#42074e"></path><path d="M0 107L7.5 105.7C15 104.3 30 101.7 45 100.5C60 99.3 75 99.7 90 102.3C105 105 120 110 135 111.5C150 113 165 111 180 112C195 113 210 117 225 117.2C240 117.3 255 113.7 270 115C285 116.3 300 122.7 315 124.3C330 126 345 123 360 122.8C375 122.7 390 125.3 405 127.5C420 129.7 435 131.3 450 125.7C465 120 480 107 495 107.3C510 107.7 525 121.3 532.5 128.2L540 135L540 0L532.5 0C525 0 510 0 495 0C480 0 465 0 450 0C435 0 420 0 405 0C390 0 375 0 360 0C345 0 330 0 315 0C300 0 285 0 270 0C255 0 240 0 225 0C210 0 195 0 180 0C165 0 150 0 135 0C120 0 105 0 90 0C75 0 60 0 45 0C30 0 15 0 7.5 0L0 0Z" fill="#4f0859"></path><path d="M0 98L7.5 99C15 100 30 102 45 101.7C60 101.3 75 98.7 90 97C105 95.3 120 94.7 135 91.2C150 87.7 165 81.3 180 80.5C195 79.7 210 84.3 225 86.8C240 89.3 255 89.7 270 93.5C285 97.3 300 104.7 315 105C330 105.3 345 98.7 360 92.8C375 87 390 82 405 82.5C420 83 435 89 450 90C465 91 480 87 495 87.7C510 88.3 525 93.7 532.5 96.3L540 99L540 0L532.5 0C525 0 510 0 495 0C480 0 465 0 450 0C435 0 420 0 405 0C390 0 375 0 360 0C345 0 330 0 315 0C300 0 285 0 270 0C255 0 240 0 225 0C210 0 195 0 180 0C165 0 150 0 135 0C120 0 105 0 90 0C75 0 60 0 45 0C30 0 15 0 7.5 0L0 0Z" fill="#5d0863"></path><path d="M0 83L7.5 82.2C15 81.3 30 79.7 45 76.5C60 73.3 75 68.7 90 69.7C105 70.7 120 77.3 135 75.8C150 74.3 165 64.7 180 61C195 57.3 210 59.7 225 61.2C240 62.7 255 63.3 270 65C285 66.7 300 69.3 315 69.7C330 70 345 68 360 67.7C375 67.3 390 68.7 405 69.5C420 70.3 435 70.7 450 70C465 69.3 480 67.7 495 70.3C510 73 525 80 532.5 83.5L540 87L540 0L532.5 0C525 0 510 0 495 0C480 0 465 0 450 0C435 0 420 0 405 0C390 0 375 0 360 0C345 0 330 0 315 0C300 0 285 0 270 0C255 0 240 0 225 0C210 0 195 0 180 0C165 0 150 0 135 0C120 0 105 0 90 0C75 0 60 0 45 0C30 0 15 0 7.5 0L0 0Z" fill="#6b076e"></path><path d="M0 62L7.5 61.7C15 61.3 30 60.7 45 60C60 59.3 75 58.7 90 57.7C105 56.7 120 55.3 135 55.8C150 56.3 165 58.7 180 57.8C195 57 210 53 225 53.5C240 54 255 59 270 60.8C285 62.7 300 61.3 315 60.3C330 59.3 345 58.7 360 57.5C375 56.3 390 54.7 405 55.5C420 56.3 435 59.7 450 58.2C465 56.7 480 50.3 495 49.5C510 48.7 525 53.3 532.5 55.7L540 58L540 0L532.5 0C525 0 510 0 495 0C480 0 465 0 450 0C435 0 420 0 405 0C390 0 375 0 360 0C345 0 330 0 315 0C300 0 285 0 270 0C255 0 240 0 225 0C210 0 195 0 180 0C165 0 150 0 135 0C120 0 105 0 90 0C75 0 60 0 45 0C30 0 15 0 7.5 0L0 0Z" fill="#7a0477"></path><path d="M0 37L7.5 34C15 31 30 25 45 23.5C60 22 75 25 90 25C105 25 120 22 135 22.5C150 23 165 27 180 27C195 27 210 23 225 21.7C240 20.3 255 21.7 270 23.8C285 26 300 29 315 29C330 29 345 26 360 23.8C375 21.7 390 20.3 405 19.5C420 18.7 435 18.3 450 19.2C465 20 480 22 495 21.8C510 21.7 525 19.3 532.5 18.2L540 17L540 0L532.5 0C525 0 510 0 495 0C480 0 465 0 450 0C435 0 420 0 405 0C390 0 375 0 360 0C345 0 330 0 315 0C300 0 285 0 270 0C255 0 240 0 225 0C210 0 195 0 180 0C165 0 150 0 135 0C120 0 105 0 90 0C75 0 60 0 45 0C30 0 15 0 7.5 0L0 0Z" fill="#8a0081"></path></svg>